<?xml version="1.0" encoding="us-ascii" standalone="no"?><svg xmlns="http://www.w3.org/2000/svg" xmlns:xlink="http://www.w3.org/1999/xlink" contentStyleType="text/css" height="1495px" preserveAspectRatio="none" style="width:1745px;height:1495px;background:#FFFFFF;" version="1.1" viewBox="0 0 1745 1495" width="1745px" zoomAndPan="magnify"><defs/><g><!--class Main--><g id="elem_Main"><rect codeLine="3" fill="#F1F1F1" height="505.8438" id="Main" rx="2.5" ry="2.5" style="stroke:#181818;stroke-width:0.5;" width="189" x="1487" y="7"/><ellipse cx="1562.25" cy="23" fill="#ADD1B2" rx="11" ry="11" style="stroke:#181818;stroke-width:1.0;"/><path d="M1565.0156,18.875 Q1565.1719,18.6563 1565.3594,18.5469 Q1565.5469,18.4375 1565.7656,18.4375 Q1566.1406,18.4375 1566.375,18.7031 Q1566.6094,18.9531 1566.6094,19.5625 L1566.6094,21.0156 Q1566.6094,21.625 1566.375,21.8906 Q1566.1406,22.1563 1565.7656,22.1563 Q1565.4219,22.1563 1565.2188,21.9531 Q1565.0156,21.7656 1564.9063,21.25 Q1564.8594,20.8906 1564.6719,20.7031 Q1564.3438,20.3281 1563.7344,20.1094 Q1563.125,19.8906 1562.5,19.8906 Q1561.7344,19.8906 1561.0938,20.2188 Q1560.4688,20.5469 1559.9688,21.2969 Q1559.4844,22.0469 1559.4844,23.0781 L1559.4844,24.1719 Q1559.4844,25.4063 1560.375,26.2344 Q1561.2656,27.0469 1562.8594,27.0469 Q1563.7969,27.0469 1564.4531,26.7969 Q1564.8438,26.6406 1565.2656,26.2031 Q1565.5313,25.9375 1565.6719,25.8594 Q1565.8281,25.7813 1566.0313,25.7813 Q1566.3594,25.7813 1566.6094,26.0469 Q1566.875,26.2969 1566.875,26.6406 Q1566.875,26.9844 1566.5313,27.3906 Q1566.0313,27.9688 1565.2344,28.2969 Q1564.1563,28.75 1562.8594,28.75 Q1561.3438,28.75 1560.1406,28.125 Q1559.1563,27.625 1558.4688,26.5625 Q1557.7813,25.4844 1557.7813,24.2031 L1557.7813,23.0469 Q1557.7813,21.7188 1558.3906,20.5781 Q1559.0156,19.4219 1560.1094,18.8125 Q1561.2031,18.1875 1562.4375,18.1875 Q1563.1719,18.1875 1563.8125,18.3594 Q1564.4688,18.5156 1565.0156,18.875 Z " fill="#000000"/><text fill="#000000" font-family="sans-serif" font-size="14" lengthAdjust="spacing" textLength="30" x="1582.75" y="28.7285">Main</text><line style="stroke:#181818;stroke-width:0.5;" x1="1488" x2="1675" y1="39" y2="39"/><rect fill="none" height="6" style="stroke:#C82930;stroke-width:1.0;" width="6" x="1495" y="50.3047"/><text fill="#000000" font-family="sans-serif" font-size="14" lengthAdjust="spacing" textLength="115" x="1507" y="57.5332">int maxFiresForT0</text><rect fill="none" height="6" style="stroke:#C82930;stroke-width:1.0;" width="6" x="1495" y="67.9141"/><text fill="#000000" font-family="sans-serif" font-size="14" lengthAdjust="spacing" textLength="77" x="1507" y="75.1426">Policy policy</text><rect fill="none" height="6" style="stroke:#C82930;stroke-width:1.0;" width="6" x="1495" y="85.5234"/><text fill="#000000" font-family="sans-serif" font-size="14" lengthAdjust="spacing" textLength="117" x="1507" y="92.752">int creatorThreads</text><rect fill="none" height="6" style="stroke:#C82930;stroke-width:1.0;" width="6" x="1495" y="103.1328"/><text fill="#000000" font-family="sans-serif" font-size="14" lengthAdjust="spacing" textLength="136" x="1507" y="110.3613">int loaderThreadsLeft</text><rect fill="none" height="6" style="stroke:#C82930;stroke-width:1.0;" width="6" x="1495" y="120.7422"/><text fill="#000000" font-family="sans-serif" font-size="14" lengthAdjust="spacing" textLength="145" x="1507" y="127.9707">int loaderThreadsRight</text><rect fill="none" height="6" style="stroke:#C82930;stroke-width:1.0;" width="6" x="1495" y="138.3516"/><text fill="#000000" font-family="sans-serif" font-size="14" lengthAdjust="spacing" textLength="154" x="1507" y="145.5801">int adjustersThreadsLeft</text><rect fill="none" height="6" style="stroke:#C82930;stroke-width:1.0;" width="6" x="1495" y="155.9609"/><text fill="#000000" font-family="sans-serif" font-size="14" lengthAdjust="spacing" textLength="163" x="1507" y="163.1895">int adjustersThreadsRight</text><rect fill="none" height="6" style="stroke:#C82930;stroke-width:1.0;" width="6" x="1495" y="173.5703"/><text fill="#000000" font-family="sans-serif" font-size="14" lengthAdjust="spacing" textLength="126" x="1507" y="180.7988">int trimmersThreads</text><rect fill="none" height="6" style="stroke:#C82930;stroke-width:1.0;" width="6" x="1495" y="191.1797"/><text fill="#000000" font-family="sans-serif" font-size="14" lengthAdjust="spacing" textLength="131" x="1507" y="198.4082">int exportersThreads</text><rect fill="none" height="6" style="stroke:#C82930;stroke-width:1.0;" width="6" x="1495" y="208.7891"/><text fill="#000000" font-family="sans-serif" font-size="14" lengthAdjust="spacing" textLength="131" x="1507" y="216.0176">List&lt;Integer&gt; creator</text><rect fill="none" height="6" style="stroke:#C82930;stroke-width:1.0;" width="6" x="1495" y="226.3984"/><text fill="#000000" font-family="sans-serif" font-size="14" lengthAdjust="spacing" textLength="102" x="1507" y="233.627">List&lt;Integer&gt; LL</text><rect fill="none" height="6" style="stroke:#C82930;stroke-width:1.0;" width="6" x="1495" y="244.0078"/><text fill="#000000" font-family="sans-serif" font-size="14" lengthAdjust="spacing" textLength="104" x="1507" y="251.2363">List&lt;Integer&gt; LR</text><rect fill="none" height="6" style="stroke:#C82930;stroke-width:1.0;" width="6" x="1495" y="261.6172"/><text fill="#000000" font-family="sans-serif" font-size="14" lengthAdjust="spacing" textLength="103" x="1507" y="268.8457">List&lt;Integer&gt; AL</text><rect fill="none" height="6" style="stroke:#C82930;stroke-width:1.0;" width="6" x="1495" y="279.2266"/><text fill="#000000" font-family="sans-serif" font-size="14" lengthAdjust="spacing" textLength="105" x="1507" y="286.4551">List&lt;Integer&gt; AR</text><rect fill="none" height="6" style="stroke:#C82930;stroke-width:1.0;" width="6" x="1495" y="296.8359"/><text fill="#000000" font-family="sans-serif" font-size="14" lengthAdjust="spacing" textLength="95" x="1507" y="304.0645">List&lt;Integer&gt; T</text><rect fill="none" height="6" style="stroke:#C82930;stroke-width:1.0;" width="6" x="1495" y="314.4453"/><text fill="#000000" font-family="sans-serif" font-size="14" lengthAdjust="spacing" textLength="95" x="1507" y="321.6738">List&lt;Integer&gt; E</text><rect fill="none" height="6" style="stroke:#C82930;stroke-width:1.0;" width="6" x="1495" y="332.0547"/><text fill="#000000" font-family="sans-serif" font-size="14" lengthAdjust="spacing" textLength="51" x="1507" y="339.2832">Rdp rdp</text><rect fill="none" height="6" style="stroke:#C82930;stroke-width:1.0;" width="6" x="1495" y="349.6641"/><text fill="#000000" font-family="sans-serif" font-size="14" lengthAdjust="spacing" textLength="98" x="1507" y="356.8926">Monitor monitor</text><rect fill="none" height="6" style="stroke:#C82930;stroke-width:1.0;" width="6" x="1495" y="367.2734"/><text fill="#000000" font-family="sans-serif" font-size="14" lengthAdjust="spacing" textLength="117" x="1507" y="374.502">Threads[] creators</text><rect fill="none" height="6" style="stroke:#C82930;stroke-width:1.0;" width="6" x="1495" y="384.8828"/><text fill="#000000" font-family="sans-serif" font-size="14" lengthAdjust="spacing" textLength="136" x="1507" y="392.1113">Threads[] loadersLeft</text><rect fill="none" height="6" style="stroke:#C82930;stroke-width:1.0;" width="6" x="1495" y="402.4922"/><text fill="#000000" font-family="sans-serif" font-size="14" lengthAdjust="spacing" textLength="145" x="1507" y="409.7207">Threads[] loadersRight</text><rect fill="none" height="6" style="stroke:#C82930;stroke-width:1.0;" width="6" x="1495" y="420.1016"/><text fill="#000000" font-family="sans-serif" font-size="14" lengthAdjust="spacing" textLength="147" x="1507" y="427.3301">Threads[] adjustersLeft</text><rect fill="none" height="6" style="stroke:#C82930;stroke-width:1.0;" width="6" x="1495" y="437.7109"/><text fill="#000000" font-family="sans-serif" font-size="14" lengthAdjust="spacing" textLength="156" x="1507" y="444.9395">Threads[] adjustersRight</text><rect fill="none" height="6" style="stroke:#C82930;stroke-width:1.0;" width="6" x="1495" y="455.3203"/><text fill="#000000" font-family="sans-serif" font-size="14" lengthAdjust="spacing" textLength="119" x="1507" y="462.5488">Threads[] trimmers</text><rect fill="none" height="6" style="stroke:#C82930;stroke-width:1.0;" width="6" x="1495" y="472.9297"/><text fill="#000000" font-family="sans-serif" font-size="14" lengthAdjust="spacing" textLength="124" x="1507" y="480.1582">Threads[] exporters</text><line style="stroke:#181818;stroke-width:0.5;" x1="1488" x2="1675" y1="487.2344" y2="487.2344"/><ellipse cx="1498" cy="501.5391" fill="#84BE84" rx="3" ry="3" style="stroke:#038048;stroke-width:1.0;"/><text fill="#000000" font-family="sans-serif" font-size="14" lengthAdjust="spacing" textLength="147" x="1507" y="505.7676">void main(String[] args)</text></g><!--class Monitor--><g id="elem_Monitor"><rect codeLine="33" fill="#F1F1F1" height="224.0938" id="Monitor" rx="2.5" ry="2.5" style="stroke:#181818;stroke-width:0.5;" width="326" x="1166.5" y="751"/><ellipse cx="1301.75" cy="767" fill="#ADD1B2" rx="11" ry="11" style="stroke:#181818;stroke-width:1.0;"/><path d="M1304.5156,762.875 Q1304.6719,762.6563 1304.8594,762.5469 Q1305.0469,762.4375 1305.2656,762.4375 Q1305.6406,762.4375 1305.875,762.7031 Q1306.1094,762.9531 1306.1094,763.5625 L1306.1094,765.0156 Q1306.1094,765.625 1305.875,765.8906 Q1305.6406,766.1563 1305.2656,766.1563 Q1304.9219,766.1563 1304.7188,765.9531 Q1304.5156,765.7656 1304.4063,765.25 Q1304.3594,764.8906 1304.1719,764.7031 Q1303.8438,764.3281 1303.2344,764.1094 Q1302.625,763.8906 1302,763.8906 Q1301.2344,763.8906 1300.5938,764.2188 Q1299.9688,764.5469 1299.4688,765.2969 Q1298.9844,766.0469 1298.9844,767.0781 L1298.9844,768.1719 Q1298.9844,769.4063 1299.875,770.2344 Q1300.7656,771.0469 1302.3594,771.0469 Q1303.2969,771.0469 1303.9531,770.7969 Q1304.3438,770.6406 1304.7656,770.2031 Q1305.0313,769.9375 1305.1719,769.8594 Q1305.3281,769.7813 1305.5313,769.7813 Q1305.8594,769.7813 1306.1094,770.0469 Q1306.375,770.2969 1306.375,770.6406 Q1306.375,770.9844 1306.0313,771.3906 Q1305.5313,771.9688 1304.7344,772.2969 Q1303.6563,772.75 1302.3594,772.75 Q1300.8438,772.75 1299.6406,772.125 Q1298.6563,771.625 1297.9688,770.5625 Q1297.2813,769.4844 1297.2813,768.2031 L1297.2813,767.0469 Q1297.2813,765.7188 1297.8906,764.5781 Q1298.5156,763.4219 1299.6094,762.8125 Q1300.7031,762.1875 1301.9375,762.1875 Q1302.6719,762.1875 1303.3125,762.3594 Q1303.9688,762.5156 1304.5156,762.875 Z " fill="#000000"/><text fill="#000000" font-family="sans-serif" font-size="14" lengthAdjust="spacing" textLength="47" x="1322.25" y="772.7285">Monitor</text><line style="stroke:#181818;stroke-width:0.5;" x1="1167.5" x2="1491.5" y1="783" y2="783"/><rect fill="none" height="6" style="stroke:#C82930;stroke-width:1.0;" width="6" x="1174.5" y="794.3047"/><text fill="#000000" font-family="sans-serif" font-size="14" lengthAdjust="spacing" textLength="51" x="1186.5" y="801.5332">Rdp rdp</text><rect fill="none" height="6" style="stroke:#C82930;stroke-width:1.0;" width="6" x="1174.5" y="811.9141"/><text fill="#000000" font-family="sans-serif" font-size="14" lengthAdjust="spacing" textLength="134" x="1186.5" y="819.1426">ReentrantLock mutex</text><rect fill="none" height="6" style="stroke:#C82930;stroke-width:1.0;" width="6" x="1174.5" y="829.5234"/><text fill="#000000" font-family="sans-serif" font-size="14" lengthAdjust="spacing" textLength="198" x="1186.5" y="836.752">boolean allInvariantsCompleted</text><rect fill="none" height="6" style="stroke:#C82930;stroke-width:1.0;" width="6" x="1174.5" y="847.1328"/><text fill="#000000" font-family="sans-serif" font-size="14" lengthAdjust="spacing" textLength="77" x="1186.5" y="854.3613">Policy policy</text><rect fill="none" height="6" style="stroke:#C82930;stroke-width:1.0;" width="6" x="1174.5" y="864.7422"/><text fill="#000000" font-family="sans-serif" font-size="14" lengthAdjust="spacing" textLength="178" x="1186.5" y="871.9707">Semaphore[] transitionSems</text><line style="stroke:#181818;stroke-width:0.5;" x1="1167.5" x2="1491.5" y1="879.0469" y2="879.0469"/><ellipse cx="1177.5" cy="893.3516" fill="#84BE84" rx="3" ry="3" style="stroke:#038048;stroke-width:1.0;"/><text fill="#000000" font-family="sans-serif" font-size="14" lengthAdjust="spacing" textLength="193" x="1186.5" y="897.5801">Monitor(Rdp rdp, Policy policy)</text><ellipse cx="1177.5" cy="910.9609" fill="#84BE84" rx="3" ry="3" style="stroke:#038048;stroke-width:1.0;"/><text fill="#000000" font-family="sans-serif" font-size="14" lengthAdjust="spacing" textLength="300" x="1186.5" y="915.1895">Boolean fireTransition(List&lt;Integer&gt; transitions)</text><rect fill="#F24D5C" height="6" style="stroke:#C82930;stroke-width:1.0;" width="6" x="1174.5" y="925.5703"/><text fill="#000000" font-family="sans-serif" font-size="14" lengthAdjust="spacing" textLength="73" x="1186.5" y="932.7988">void finish()</text><ellipse cx="1177.5" cy="946.1797" fill="#84BE84" rx="3" ry="3" style="stroke:#038048;stroke-width:1.0;"/><text fill="#000000" font-family="sans-serif" font-size="14" lengthAdjust="spacing" textLength="215" x="1186.5" y="950.4082">boolean areInvariantsCompleted()</text><ellipse cx="1177.5" cy="963.7891" fill="#84BE84" rx="3" ry="3" style="stroke:#038048;stroke-width:1.0;"/><text fill="#000000" font-family="sans-serif" font-size="14" lengthAdjust="spacing" textLength="86" x="1186.5" y="968.0176">Rdp getRdp()</text></g><!--class Policy--><g id="elem_Policy"><rect codeLine="47" fill="#F1F1F1" height="118.4375" id="Policy" rx="2.5" ry="2.5" style="stroke:#181818;stroke-width:0.5;" width="248" x="1490.5" y="1202.5"/><ellipse cx="1591.75" cy="1218.5" fill="#ADD1B2" rx="11" ry="11" style="stroke:#181818;stroke-width:1.0;"/><path d="M1594.5156,1214.375 Q1594.6719,1214.1563 1594.8594,1214.0469 Q1595.0469,1213.9375 1595.2656,1213.9375 Q1595.6406,1213.9375 1595.875,1214.2031 Q1596.1094,1214.4531 1596.1094,1215.0625 L1596.1094,1216.5156 Q1596.1094,1217.125 1595.875,1217.3906 Q1595.6406,1217.6563 1595.2656,1217.6563 Q1594.9219,1217.6563 1594.7188,1217.4531 Q1594.5156,1217.2656 1594.4063,1216.75 Q1594.3594,1216.3906 1594.1719,1216.2031 Q1593.8438,1215.8281 1593.2344,1215.6094 Q1592.625,1215.3906 1592,1215.3906 Q1591.2344,1215.3906 1590.5938,1215.7188 Q1589.9688,1216.0469 1589.4688,1216.7969 Q1588.9844,1217.5469 1588.9844,1218.5781 L1588.9844,1219.6719 Q1588.9844,1220.9063 1589.875,1221.7344 Q1590.7656,1222.5469 1592.3594,1222.5469 Q1593.2969,1222.5469 1593.9531,1222.2969 Q1594.3438,1222.1406 1594.7656,1221.7031 Q1595.0313,1221.4375 1595.1719,1221.3594 Q1595.3281,1221.2813 1595.5313,1221.2813 Q1595.8594,1221.2813 1596.1094,1221.5469 Q1596.375,1221.7969 1596.375,1222.1406 Q1596.375,1222.4844 1596.0313,1222.8906 Q1595.5313,1223.4688 1594.7344,1223.7969 Q1593.6563,1224.25 1592.3594,1224.25 Q1590.8438,1224.25 1589.6406,1223.625 Q1588.6563,1223.125 1587.9688,1222.0625 Q1587.2813,1220.9844 1587.2813,1219.7031 L1587.2813,1218.5469 Q1587.2813,1217.2188 1587.8906,1216.0781 Q1588.5156,1214.9219 1589.6094,1214.3125 Q1590.7031,1213.6875 1591.9375,1213.6875 Q1592.6719,1213.6875 1593.3125,1213.8594 Q1593.9688,1214.0156 1594.5156,1214.375 Z " fill="#000000"/><text fill="#000000" font-family="sans-serif" font-size="14" lengthAdjust="spacing" textLength="37" x="1612.25" y="1224.2285">Policy</text><line style="stroke:#181818;stroke-width:0.5;" x1="1491.5" x2="1737.5" y1="1234.5" y2="1234.5"/><rect fill="none" height="6" style="stroke:#C82930;stroke-width:1.0;" width="6" x="1498.5" y="1245.8047"/><text fill="#000000" font-family="sans-serif" font-size="14" lengthAdjust="spacing" textLength="185" x="1510.5" y="1253.0332">boolean policyTypeEquitative</text><rect fill="none" height="6" style="stroke:#C82930;stroke-width:1.0;" width="6" x="1498.5" y="1263.4141"/><text fill="#000000" font-family="sans-serif" font-size="14" lengthAdjust="spacing" textLength="86" x="1510.5" y="1270.6426">Random rand</text><line style="stroke:#181818;stroke-width:0.5;" x1="1491.5" x2="1737.5" y1="1277.7188" y2="1277.7188"/><ellipse cx="1501.5" cy="1292.0234" fill="#84BE84" rx="3" ry="3" style="stroke:#038048;stroke-width:1.0;"/><text fill="#000000" font-family="sans-serif" font-size="14" lengthAdjust="spacing" textLength="110" x="1510.5" y="1296.252">Policy(boolean a)</text><ellipse cx="1501.5" cy="1309.6328" fill="#84BE84" rx="3" ry="3" style="stroke:#038048;stroke-width:1.0;"/><text fill="#000000" font-family="sans-serif" font-size="14" lengthAdjust="spacing" textLength="222" x="1510.5" y="1313.8613">int decide(List&lt;Integer&gt; transitions)</text></g><!--class Rdp--><g id="elem_Rdp"><rect codeLine="55" fill="#F1F1F1" height="453.0156" id="Rdp" rx="2.5" ry="2.5" style="stroke:#181818;stroke-width:0.5;" width="242" x="1211.5" y="1035"/><ellipse cx="1315.25" cy="1051" fill="#ADD1B2" rx="11" ry="11" style="stroke:#181818;stroke-width:1.0;"/><path d="M1318.0156,1046.875 Q1318.1719,1046.6563 1318.3594,1046.5469 Q1318.5469,1046.4375 1318.7656,1046.4375 Q1319.1406,1046.4375 1319.375,1046.7031 Q1319.6094,1046.9531 1319.6094,1047.5625 L1319.6094,1049.0156 Q1319.6094,1049.625 1319.375,1049.8906 Q1319.1406,1050.1563 1318.7656,1050.1563 Q1318.4219,1050.1563 1318.2188,1049.9531 Q1318.0156,1049.7656 1317.9063,1049.25 Q1317.8594,1048.8906 1317.6719,1048.7031 Q1317.3438,1048.3281 1316.7344,1048.1094 Q1316.125,1047.8906 1315.5,1047.8906 Q1314.7344,1047.8906 1314.0938,1048.2188 Q1313.4688,1048.5469 1312.9688,1049.2969 Q1312.4844,1050.0469 1312.4844,1051.0781 L1312.4844,1052.1719 Q1312.4844,1053.4063 1313.375,1054.2344 Q1314.2656,1055.0469 1315.8594,1055.0469 Q1316.7969,1055.0469 1317.4531,1054.7969 Q1317.8438,1054.6406 1318.2656,1054.2031 Q1318.5313,1053.9375 1318.6719,1053.8594 Q1318.8281,1053.7813 1319.0313,1053.7813 Q1319.3594,1053.7813 1319.6094,1054.0469 Q1319.875,1054.2969 1319.875,1054.6406 Q1319.875,1054.9844 1319.5313,1055.3906 Q1319.0313,1055.9688 1318.2344,1056.2969 Q1317.1563,1056.75 1315.8594,1056.75 Q1314.3438,1056.75 1313.1406,1056.125 Q1312.1563,1055.625 1311.4688,1054.5625 Q1310.7813,1053.4844 1310.7813,1052.2031 L1310.7813,1051.0469 Q1310.7813,1049.7188 1311.3906,1048.5781 Q1312.0156,1047.4219 1313.1094,1046.8125 Q1314.2031,1046.1875 1315.4375,1046.1875 Q1316.1719,1046.1875 1316.8125,1046.3594 Q1317.4688,1046.5156 1318.0156,1046.875 Z " fill="#000000"/><text fill="#000000" font-family="sans-serif" font-size="14" lengthAdjust="spacing" textLength="26" x="1335.75" y="1056.7285">Rdp</text><line style="stroke:#181818;stroke-width:0.5;" x1="1212.5" x2="1452.5" y1="1067" y2="1067"/><rect fill="none" height="6" style="stroke:#C82930;stroke-width:1.0;" width="6" x="1219.5" y="1078.3047"/><text fill="#000000" font-family="sans-serif" font-size="14" lengthAdjust="spacing" textLength="101" x="1231.5" y="1085.5332">int transitionsNo</text><rect fill="none" height="6" style="stroke:#C82930;stroke-width:1.0;" width="6" x="1219.5" y="1095.9141"/><text fill="#000000" font-family="sans-serif" font-size="14" lengthAdjust="spacing" textLength="160" x="1231.5" y="1103.1426">double[][] incidenceMatrix</text><rect fill="none" height="6" style="stroke:#C82930;stroke-width:1.0;" width="6" x="1219.5" y="1113.5234"/><text fill="#000000" font-family="sans-serif" font-size="14" lengthAdjust="spacing" textLength="137" x="1231.5" y="1120.752">double[] initialMarking</text><rect fill="none" height="6" style="stroke:#C82930;stroke-width:1.0;" width="6" x="1219.5" y="1131.1328"/><text fill="#000000" font-family="sans-serif" font-size="14" lengthAdjust="spacing" textLength="150" x="1231.5" y="1138.3613">double[] transitionMatrix</text><rect fill="none" height="6" style="stroke:#C82930;stroke-width:1.0;" width="6" x="1219.5" y="1148.7422"/><text fill="#000000" font-family="sans-serif" font-size="14" lengthAdjust="spacing" textLength="211" x="1231.5" y="1155.9707">List&lt;Integer&gt; transitionSleepTime</text><rect fill="none" height="6" style="stroke:#C82930;stroke-width:1.0;" width="6" x="1219.5" y="1166.3516"/><text fill="#000000" font-family="sans-serif" font-size="14" lengthAdjust="spacing" textLength="128" x="1231.5" y="1173.5801">long[] transitionTime</text><rect fill="none" height="6" style="stroke:#C82930;stroke-width:1.0;" width="6" x="1219.5" y="1183.9609"/><text fill="#000000" font-family="sans-serif" font-size="14" lengthAdjust="spacing" textLength="93" x="1231.5" y="1191.1895">int[] firedCount</text><rect fill="none" height="6" style="stroke:#C82930;stroke-width:1.0;" width="6" x="1219.5" y="1201.5703"/><text fill="#000000" font-family="sans-serif" font-size="14" lengthAdjust="spacing" textLength="103" x="1231.5" y="1208.7988">String sequence</text><rect fill="none" height="6" style="stroke:#C82930;stroke-width:1.0;" width="6" x="1219.5" y="1219.1797"/><text fill="#000000" font-family="sans-serif" font-size="14" lengthAdjust="spacing" textLength="98" x="1231.5" y="1226.4082">int maxInvariant</text><rect fill="none" height="6" style="stroke:#C82930;stroke-width:1.0;" width="6" x="1219.5" y="1236.7891"/><text fill="#000000" font-family="sans-serif" font-size="14" lengthAdjust="spacing" textLength="130" x="1231.5" y="1244.0176">RealMatrix incidence</text><rect fill="none" height="6" style="stroke:#C82930;stroke-width:1.0;" width="6" x="1219.5" y="1254.3984"/><text fill="#000000" font-family="sans-serif" font-size="14" lengthAdjust="spacing" textLength="124" x="1231.5" y="1261.627">RealVector marking</text><rect fill="none" height="6" style="stroke:#C82930;stroke-width:1.0;" width="6" x="1219.5" y="1272.0078"/><text fill="#000000" font-family="sans-serif" font-size="14" lengthAdjust="spacing" textLength="132" x="1231.5" y="1279.2363">RealVector transition</text><line style="stroke:#181818;stroke-width:0.5;" x1="1212.5" x2="1452.5" y1="1286.3125" y2="1286.3125"/><ellipse cx="1222.5" cy="1300.6172" fill="#84BE84" rx="3" ry="3" style="stroke:#038048;stroke-width:1.0;"/><text fill="#000000" font-family="sans-serif" font-size="14" lengthAdjust="spacing" textLength="80" x="1231.5" y="1304.8457">Rdp(int max)</text><ellipse cx="1222.5" cy="1318.2266" fill="#84BE84" rx="3" ry="3" style="stroke:#038048;stroke-width:1.0;"/><text fill="#000000" font-family="sans-serif" font-size="14" lengthAdjust="spacing" textLength="154" x="1231.5" y="1322.4551">boolean isEnabled(int a)</text><ellipse cx="1222.5" cy="1335.8359" fill="#84BE84" rx="3" ry="3" style="stroke:#038048;stroke-width:1.0;"/><text fill="#000000" font-family="sans-serif" font-size="14" lengthAdjust="spacing" textLength="183" x="1231.5" y="1340.0645">List&lt;Integer&gt; whichEnabled()</text><ellipse cx="1222.5" cy="1353.4453" fill="#84BE84" rx="3" ry="3" style="stroke:#038048;stroke-width:1.0;"/><text fill="#000000" font-family="sans-serif" font-size="14" lengthAdjust="spacing" textLength="87" x="1231.5" y="1357.6738">void fire(int a)</text><rect fill="#F24D5C" height="6" style="stroke:#C82930;stroke-width:1.0;" width="6" x="1219.5" y="1368.0547"/><text fill="#000000" font-family="sans-serif" font-size="14" lengthAdjust="spacing" textLength="216" x="1231.5" y="1375.2832">void updateMarking(RealVector a)</text><ellipse cx="1222.5" cy="1388.6641" fill="#84BE84" rx="3" ry="3" style="stroke:#038048;stroke-width:1.0;"/><text fill="#000000" font-family="sans-serif" font-size="14" lengthAdjust="spacing" textLength="118" x="1231.5" y="1392.8926">void printMarking()</text><ellipse cx="1222.5" cy="1406.2734" fill="#84BE84" rx="3" ry="3" style="stroke:#038048;stroke-width:1.0;"/><text fill="#000000" font-family="sans-serif" font-size="14" lengthAdjust="spacing" textLength="152" x="1231.5" y="1410.502">int getMarking(int place)</text><rect fill="#F24D5C" height="6" style="stroke:#C82930;stroke-width:1.0;" width="6" x="1219.5" y="1420.8828"/><text fill="#000000" font-family="sans-serif" font-size="14" lengthAdjust="spacing" textLength="152" x="1231.5" y="1428.1113">void testPlaceInvariant()</text><ellipse cx="1222.5" cy="1441.4922" fill="#84BE84" rx="3" ry="3" style="stroke:#038048;stroke-width:1.0;"/><text fill="#000000" font-family="sans-serif" font-size="14" lengthAdjust="spacing" textLength="135" x="1231.5" y="1445.7207">String getSequence()</text><ellipse cx="1222.5" cy="1459.1016" fill="#84BE84" rx="3" ry="3" style="stroke:#038048;stroke-width:1.0;"/><text fill="#000000" font-family="sans-serif" font-size="14" lengthAdjust="spacing" textLength="192" x="1231.5" y="1463.3301">Boolean completedInvariants()</text><ellipse cx="1222.5" cy="1476.7109" fill="#84BE84" rx="3" ry="3" style="stroke:#038048;stroke-width:1.0;"/><text fill="#000000" font-family="sans-serif" font-size="14" lengthAdjust="spacing" textLength="141" x="1231.5" y="1480.9395">int[] getFiredCounter()</text></g><!--class Threads--><g id="elem_Threads"><rect codeLine="82" fill="#F1F1F1" height="118.4375" id="Threads" rx="2.5" ry="2.5" style="stroke:#181818;stroke-width:0.5;" width="346" x="1075.5" y="573"/><ellipse cx="1217.75" cy="589" fill="#ADD1B2" rx="11" ry="11" style="stroke:#181818;stroke-width:1.0;"/><path d="M1220.5156,584.875 Q1220.6719,584.6563 1220.8594,584.5469 Q1221.0469,584.4375 1221.2656,584.4375 Q1221.6406,584.4375 1221.875,584.7031 Q1222.1094,584.9531 1222.1094,585.5625 L1222.1094,587.0156 Q1222.1094,587.625 1221.875,587.8906 Q1221.6406,588.1563 1221.2656,588.1563 Q1220.9219,588.1563 1220.7188,587.9531 Q1220.5156,587.7656 1220.4063,587.25 Q1220.3594,586.8906 1220.1719,586.7031 Q1219.8438,586.3281 1219.2344,586.1094 Q1218.625,585.8906 1218,585.8906 Q1217.2344,585.8906 1216.5938,586.2188 Q1215.9688,586.5469 1215.4688,587.2969 Q1214.9844,588.0469 1214.9844,589.0781 L1214.9844,590.1719 Q1214.9844,591.4063 1215.875,592.2344 Q1216.7656,593.0469 1218.3594,593.0469 Q1219.2969,593.0469 1219.9531,592.7969 Q1220.3438,592.6406 1220.7656,592.2031 Q1221.0313,591.9375 1221.1719,591.8594 Q1221.3281,591.7813 1221.5313,591.7813 Q1221.8594,591.7813 1222.1094,592.0469 Q1222.375,592.2969 1222.375,592.6406 Q1222.375,592.9844 1222.0313,593.3906 Q1221.5313,593.9688 1220.7344,594.2969 Q1219.6563,594.75 1218.3594,594.75 Q1216.8438,594.75 1215.6406,594.125 Q1214.6563,593.625 1213.9688,592.5625 Q1213.2813,591.4844 1213.2813,590.2031 L1213.2813,589.0469 Q1213.2813,587.7188 1213.8906,586.5781 Q1214.5156,585.4219 1215.6094,584.8125 Q1216.7031,584.1875 1217.9375,584.1875 Q1218.6719,584.1875 1219.3125,584.3594 Q1219.9688,584.5156 1220.5156,584.875 Z " fill="#000000"/><text fill="#000000" font-family="sans-serif" font-size="14" lengthAdjust="spacing" textLength="53" x="1238.25" y="594.7285">Threads</text><line style="stroke:#181818;stroke-width:0.5;" x1="1076.5" x2="1420.5" y1="605" y2="605"/><rect fill="none" height="6" style="stroke:#C82930;stroke-width:1.0;" width="6" x="1083.5" y="616.3047"/><text fill="#000000" font-family="sans-serif" font-size="14" lengthAdjust="spacing" textLength="151" x="1095.5" y="623.5332">List&lt;Integer&gt; transitions</text><rect fill="none" height="6" style="stroke:#C82930;stroke-width:1.0;" width="6" x="1083.5" y="633.9141"/><text fill="#000000" font-family="sans-serif" font-size="14" lengthAdjust="spacing" textLength="98" x="1095.5" y="641.1426">Monitor monitor</text><line style="stroke:#181818;stroke-width:0.5;" x1="1076.5" x2="1420.5" y1="648.2188" y2="648.2188"/><ellipse cx="1086.5" cy="662.5234" fill="#84BE84" rx="3" ry="3" style="stroke:#038048;stroke-width:1.0;"/><text fill="#000000" font-family="sans-serif" font-size="14" lengthAdjust="spacing" textLength="320" x="1095.5" y="666.752">Threads(List&lt;Integer&gt; transitions, Monitor monitor)</text><ellipse cx="1086.5" cy="680.1328" fill="#84BE84" rx="3" ry="3" style="stroke:#038048;stroke-width:1.0;"/><text fill="#000000" font-family="sans-serif" font-size="14" lengthAdjust="spacing" textLength="61" x="1095.5" y="684.3613">void run()</text></g><!--class Log--><g id="elem_Log"><rect codeLine="90" fill="#F1F1F1" height="347.3594" id="Log" rx="2.5" ry="2.5" style="stroke:#181818;stroke-width:0.5;" width="1445" x="7" y="86.5"/><ellipse cx="713.25" cy="102.5" fill="#ADD1B2" rx="11" ry="11" style="stroke:#181818;stroke-width:1.0;"/><path d="M716.0156,98.375 Q716.1719,98.1563 716.3594,98.0469 Q716.5469,97.9375 716.7656,97.9375 Q717.1406,97.9375 717.375,98.2031 Q717.6094,98.4531 717.6094,99.0625 L717.6094,100.5156 Q717.6094,101.125 717.375,101.3906 Q717.1406,101.6563 716.7656,101.6563 Q716.4219,101.6563 716.2188,101.4531 Q716.0156,101.2656 715.9063,100.75 Q715.8594,100.3906 715.6719,100.2031 Q715.3438,99.8281 714.7344,99.6094 Q714.125,99.3906 713.5,99.3906 Q712.7344,99.3906 712.0938,99.7188 Q711.4688,100.0469 710.9688,100.7969 Q710.4844,101.5469 710.4844,102.5781 L710.4844,103.6719 Q710.4844,104.9063 711.375,105.7344 Q712.2656,106.5469 713.8594,106.5469 Q714.7969,106.5469 715.4531,106.2969 Q715.8438,106.1406 716.2656,105.7031 Q716.5313,105.4375 716.6719,105.3594 Q716.8281,105.2813 717.0313,105.2813 Q717.3594,105.2813 717.6094,105.5469 Q717.875,105.7969 717.875,106.1406 Q717.875,106.4844 717.5313,106.8906 Q717.0313,107.4688 716.2344,107.7969 Q715.1563,108.25 713.8594,108.25 Q712.3438,108.25 711.1406,107.625 Q710.1563,107.125 709.4688,106.0625 Q708.7813,104.9844 708.7813,103.7031 L708.7813,102.5469 Q708.7813,101.2188 709.3906,100.0781 Q710.0156,98.9219 711.1094,98.3125 Q712.2031,97.6875 713.4375,97.6875 Q714.1719,97.6875 714.8125,97.8594 Q715.4688,98.0156 716.0156,98.375 Z " fill="#000000"/><text fill="#000000" font-family="sans-serif" font-size="14" lengthAdjust="spacing" textLength="24" x="733.75" y="108.2285">Log</text><line style="stroke:#181818;stroke-width:0.5;" x1="8" x2="1451" y1="118.5" y2="118.5"/><rect fill="none" height="6" style="stroke:#C82930;stroke-width:1.0;" width="6" x="15" y="129.8047"/><text fill="#000000" font-family="sans-serif" font-size="14" lengthAdjust="spacing" textLength="54" x="27" y="137.0332">int count</text><rect fill="none" height="6" style="stroke:#C82930;stroke-width:1.0;" width="6" x="15" y="147.4141"/><text fill="#000000" font-family="sans-serif" font-size="14" lengthAdjust="spacing" textLength="154" x="27" y="154.6426">Threads[] threadCreator</text><rect fill="none" height="6" style="stroke:#C82930;stroke-width:1.0;" width="6" x="15" y="165.0234"/><text fill="#000000" font-family="sans-serif" font-size="14" lengthAdjust="spacing" textLength="175" x="27" y="172.252">Threads[] threadLeftLoader</text><rect fill="none" height="6" style="stroke:#C82930;stroke-width:1.0;" width="6" x="15" y="182.6328"/><text fill="#000000" font-family="sans-serif" font-size="14" lengthAdjust="spacing" textLength="184" x="27" y="189.8613">Threads[] threadRightLoader</text><rect fill="none" height="6" style="stroke:#C82930;stroke-width:1.0;" width="6" x="15" y="200.2422"/><text fill="#000000" font-family="sans-serif" font-size="14" lengthAdjust="spacing" textLength="189" x="27" y="207.4707">Threads[] threadLeftAdjusters</text><rect fill="none" height="6" style="stroke:#C82930;stroke-width:1.0;" width="6" x="15" y="217.8516"/><text fill="#000000" font-family="sans-serif" font-size="14" lengthAdjust="spacing" textLength="198" x="27" y="225.0801">Threads[] threadRightAdjusters</text><rect fill="none" height="6" style="stroke:#C82930;stroke-width:1.0;" width="6" x="15" y="235.4609"/><text fill="#000000" font-family="sans-serif" font-size="14" lengthAdjust="spacing" textLength="165" x="27" y="242.6895">Threads[] threadTrimmers</text><rect fill="none" height="6" style="stroke:#C82930;stroke-width:1.0;" width="6" x="15" y="253.0703"/><text fill="#000000" font-family="sans-serif" font-size="14" lengthAdjust="spacing" textLength="166" x="27" y="260.2988">Threads[] threadExporters</text><rect fill="none" height="6" style="stroke:#C82930;stroke-width:1.0;" width="6" x="15" y="270.6797"/><text fill="#000000" font-family="sans-serif" font-size="14" lengthAdjust="spacing" textLength="98" x="27" y="277.9082">Monitor monitor</text><rect fill="none" height="6" style="stroke:#C82930;stroke-width:1.0;" width="6" x="15" y="288.2891"/><text fill="#000000" font-family="sans-serif" font-size="14" lengthAdjust="spacing" textLength="45" x="27" y="295.5176">File file</text><rect fill="none" height="6" style="stroke:#C82930;stroke-width:1.0;" width="6" x="15" y="305.8984"/><text fill="#000000" font-family="sans-serif" font-size="14" lengthAdjust="spacing" textLength="53" x="27" y="313.127">File file1</text><rect fill="none" height="6" style="stroke:#C82930;stroke-width:1.0;" width="6" x="15" y="323.5078"/><text fill="#000000" font-family="sans-serif" font-size="14" lengthAdjust="spacing" textLength="120" x="27" y="330.7363">Long INITIAL_TIME</text><line style="stroke:#181818;stroke-width:0.5;" x1="8" x2="1451" y1="337.8125" y2="337.8125"/><ellipse cx="18" cy="352.1172" fill="#84BE84" rx="3" ry="3" style="stroke:#038048;stroke-width:1.0;"/><text fill="#000000" font-family="sans-serif" font-size="14" lengthAdjust="spacing" textLength="1419" x="27" y="356.3457">Log(Threads[] threadCreator, Threads[] threadLeftLoader, Threads[] threadRightLoader, Threads[] threadLeftAdjusters, Threads[] threadRightAdjusters, Threads[] threadTrimmers, Threads[] threadExporters, Monitor monitor)</text><ellipse cx="18" cy="369.7266" fill="#84BE84" rx="3" ry="3" style="stroke:#038048;stroke-width:1.0;"/><text fill="#000000" font-family="sans-serif" font-size="14" lengthAdjust="spacing" textLength="61" x="27" y="373.9551">void run()</text><rect fill="#F24D5C" height="6" style="stroke:#C82930;stroke-width:1.0;" width="6" x="15" y="384.3359"/><text fill="#000000" font-family="sans-serif" font-size="14" lengthAdjust="spacing" textLength="92" x="27" y="391.5645">void writeFile()</text><rect fill="#F24D5C" height="6" style="stroke:#C82930;stroke-width:1.0;" width="6" x="15" y="401.9453"/><text fill="#000000" font-family="sans-serif" font-size="14" lengthAdjust="spacing" textLength="156" x="27" y="409.1738">void logWriteSequence()</text><rect fill="#F24D5C" height="6" style="stroke:#C82930;stroke-width:1.0;" width="6" x="15" y="419.5547"/><text fill="#000000" font-family="sans-serif" font-size="14" lengthAdjust="spacing" textLength="162" x="27" y="426.7832">void writeSequenceOnly()</text></g><!--link Main to Monitor--><g id="link_Main_Monitor"><path codeLine="111" d="M1510.09,513.04 C1490.02,572.54 1466.25,634.95 1439.5,691 C1430,710.91 1421.701,726.1656 1409.861,745.6056 " fill="none" id="Main-to-Monitor" style="stroke:#181818;stroke-width:1.0;"/><polygon fill="#181818" points="1406.74,750.73,1414.8378,745.1241,1409.3408,746.4597,1408.0053,740.9628,1406.74,750.73" style="stroke:#181818;stroke-width:1.0;"/></g><!--link Main to Policy--><g id="link_Main_Policy"><path codeLine="112" d="M1589.83,513.22 C1597.46,744.54 1608.0322,1064.5333 1612.3722,1196.0833 " fill="none" id="Main-to-Policy" style="stroke:#181818;stroke-width:1.0;"/><polygon fill="#181818" points="1612.57,1202.08,1616.2711,1192.953,1612.4051,1197.0827,1608.2754,1193.2168,1612.57,1202.08" style="stroke:#181818;stroke-width:1.0;"/></g><!--link Main to Rdp--><g id="link_Main_Rdp"><path codeLine="113" d="M1584.26,513.09 C1578.96,652.53 1560.91,827.01 1510.5,975 C1510.22,975.83 1488.1558,1011.3094 1456.7758,1061.6094 " fill="none" id="Main-to-Rdp" style="stroke:#181818;stroke-width:1.0;"/><polygon fill="#181818" points="1453.6,1066.7,1461.7574,1061.1813,1456.2465,1062.4578,1454.97,1056.9469,1453.6,1066.7" style="stroke:#181818;stroke-width:1.0;"/></g><!--link Main to Threads--><g id="link_Main_Threads"><path codeLine="114" d="M1486.97,492.21 C1481.43,499.47 1475.61,506.43 1469.5,513 C1447.43,536.72 1424.6989,553.6522 1396.1689,569.9622 " fill="none" id="Main-to-Threads" style="stroke:#181818;stroke-width:1.0;"/><polygon fill="#181818" points="1390.96,572.94,1400.7586,571.9459,1395.3007,570.4585,1396.7881,565.0007,1390.96,572.94" style="stroke:#181818;stroke-width:1.0;"/></g><!--link Monitor to Rdp--><g id="link_Monitor_Rdp"><path codeLine="115" d="M1330.34,975.24 C1330.48,994.14 1330.5964,1008.3502 1330.7464,1028.9702 " fill="none" id="Monitor-to-Rdp" style="stroke:#181818;stroke-width:1.0;"/><polygon fill="#181818" points="1330.79,1034.97,1334.7244,1025.9411,1330.7536,1029.9701,1326.7246,1025.9993,1330.79,1034.97" style="stroke:#181818;stroke-width:1.0;"/></g><!--link Monitor to Policy--><g id="link_Monitor_Policy"><path codeLine="116" d="M1425.17,975.05 C1441.08,994.68 1457.08,1015.19 1471.5,1035 C1511.46,1089.91 1549.4325,1150.6753 1577.2425,1197.0153 " fill="none" id="Monitor-to-Policy" style="stroke:#181818;stroke-width:1.0;"/><polygon fill="#181818" points="1580.33,1202.16,1579.1286,1192.3847,1577.7571,1197.8728,1572.269,1196.5013,1580.33,1202.16" style="stroke:#181818;stroke-width:1.0;"/></g><!--link Threads to Monitor--><g id="link_Threads_Monitor"><path codeLine="117" d="M1269.04,691.08 C1275.51,709.37 1280.8896,724.5533 1288.2096,745.2533 " fill="none" id="Threads-to-Monitor" style="stroke:#181818;stroke-width:1.0;"/><polygon fill="#181818" points="1290.21,750.91,1290.9806,741.0913,1288.543,746.1961,1283.4383,743.7585,1290.21,750.91" style="stroke:#181818;stroke-width:1.0;"/></g><!--link Log to Monitor--><g id="link_Log_Monitor"><path codeLine="118" d="M840.18,433.55 C898.86,517.13 975.83,615.47 1058.5,691 C1090.84,720.55 1123.886,744.8507 1161.126,768.8407 " fill="none" id="Log-to-Monitor" style="stroke:#181818;stroke-width:1.0;"/><polygon fill="#181818" points="1166.17,772.09,1160.7702,763.8533,1161.9667,769.3822,1156.4378,770.5787,1166.17,772.09" style="stroke:#181818;stroke-width:1.0;"/></g><!--link Log to Threads--><g id="link_Log_Threads"><path codeLine="119" d="M971.53,433.54 C1041.95,483.75 1109.2142,531.7073 1162.2142,569.4873 " fill="none" id="Log-to-Threads" style="stroke:#181818;stroke-width:1.0;"/><polygon fill="#181818" points="1167.1,572.97,1162.0932,564.4887,1163.0285,570.0677,1157.4495,571.0031,1167.1,572.97" style="stroke:#181818;stroke-width:1.0;"/></g><!--SRC=[ZLPHRziW47xFh_1R7TMLjlUfKbObKYIdgn9hUvYcYTfNXnM32xXD5Us_3sp0uDZk-b2N- -wExpxke5VH3c4QtH4an2BNlpl3UH6fdvi8KnbLwBJ17CI6yUoJiJymWlFtg6u_dc_E0KdbTrJVGdW0OQW0Qq_XIKvXUrmUVH0LVneXWOlns24y39SSLrKFUmYSQiRb1PHY8RzigOGI-AsjPnHBqt7pVjIy6lTUZNjdezQriUwBEk95RLOxHh7Y65NTrrXDLJz_sHh41T3fxYjwWVbozg0JVJJKeUF1zaGk07SWBN8TlJ9SgER3D3we65hgrBmKoyNVnUBALHsqhh6THtNQ0r394PKfov-Zgf5mCiWZOmGGZH0XM_gAE5PEuevLDG49nKpB7w12zP5nQEj2L6296LLMMuDX51icIPXbQRo-clsVr9XbBaqS7dwVNopDzgr2JvXYSOnjBbSBXv5Qd9icL89KdzW8QfZvUXhJUI1JHpvxhs7zqc2997u5gp6Y1QiYHRKm6tKvOaVB4j0ZM42E2vYhisMckVgqzFeSpBYBk6V6Nh3caQXZKGU3gTw5vh13gezE0mS5gr14TeW_goORedtk87gAye40r1ckh1w4jNtREtYOeguWVUR57MkedPIksIC1Buqc7Lx4xaXTJslccbXVfWTzXxoz6OBQFA3drRT5RBOQDXGMQugKA4NhuCunLEBjYFEZzLlwWwphz2DDzpPrWIGOyMEF6WgYQwM9j5v-2waUjcQzh0dA8TX0Wf0FskgaS_56QPNYOCIEXnEPsy7fPydVNfsVYjwu8mHkfybSQq7VMjlvWoOICnVxjSqoFJN9C31GaZVKSanP6V3JQt-kSgyhlVkx_UikU1Y7g7uNqlO5cN1eduPP3vrYPL-IkImVEMLJxqq7huDNP-ertM02geK93DUVxLcgGO-szzjikqf_PzlTseu7A-C9xP8PsP8vnP9viP8FT4ec9KgcrVcVflAcxerZ2Lgaq4nO-KCZWtdpWopqZP9tswXx8AXjxIEknQBz1_NcvjOowWtTMzElrMtMB-o_UROEv-2jJG8xgFucUZZ6rZRjFm00]--></g></svg>