<?xml version="1.0" encoding="us-ascii" standalone="no"?><svg xmlns="http://www.w3.org/2000/svg" xmlns:xlink="http://www.w3.org/1999/xlink" contentStyleType="text/css" height="1188px" preserveAspectRatio="none" style="width:849px;height:1188px;background:#FFFFFF;" version="1.1" viewBox="0 0 849 1188" width="849px" zoomAndPan="magnify"><defs/><g><rect fill="#FFFFFF" height="299.1641" style="stroke:#181818;stroke-width:1.0;" width="10" x="199" y="365.4766"/><rect fill="none" height="230.8125" style="stroke:#000000;stroke-width:1.5;" width="695.5" x="10" y="54.6094"/><rect fill="none" height="380.2188" style="stroke:#000000;stroke-width:1.5;" width="514" x="153.5" y="299.4219"/><rect fill="none" height="347.8672" style="stroke:#000000;stroke-width:1.5;" width="494" x="163.5" y="324.7734"/><rect fill="none" height="440.9219" style="stroke:#000000;stroke-width:1.5;" width="689.5" x="153.5" y="693.6406"/><rect fill="none" height="213.4609" style="stroke:#000000;stroke-width:1.5;" width="669.5" x="163.5" y="718.9922"/><line style="stroke:#181818;stroke-width:0.5;stroke-dasharray:5.0,5.0;" x1="42" x2="42" y1="37.6094" y2="1151.5625"/><line style="stroke:#181818;stroke-width:0.5;stroke-dasharray:5.0,5.0;" x1="203.5" x2="203.5" y1="37.6094" y2="1151.5625"/><line style="stroke:#181818;stroke-width:0.5;stroke-dasharray:5.0,5.0;" x1="421" x2="421" y1="37.6094" y2="1151.5625"/><line style="stroke:#181818;stroke-width:0.5;stroke-dasharray:5.0,5.0;" x1="544.5" x2="544.5" y1="37.6094" y2="1151.5625"/><line style="stroke:#181818;stroke-width:0.5;stroke-dasharray:5.0,5.0;" x1="613.5" x2="613.5" y1="37.6094" y2="1151.5625"/><line style="stroke:#181818;stroke-width:0.5;stroke-dasharray:5.0,5.0;" x1="676.5" x2="676.5" y1="37.6094" y2="1151.5625"/><line style="stroke:#181818;stroke-width:0.5;stroke-dasharray:5.0,5.0;" x1="804" x2="804" y1="37.6094" y2="1151.5625"/><rect fill="#E2E2F0" height="31.6094" rx="2.5" ry="2.5" style="stroke:#181818;stroke-width:0.5;" width="44" x="20" y="5"/><text fill="#000000" font-family="sans-serif" font-size="14" lengthAdjust="spacing" textLength="30" x="27" y="26.5332">Main</text><rect fill="#E2E2F0" height="31.6094" rx="2.5" ry="2.5" style="stroke:#181818;stroke-width:0.5;" width="44" x="20" y="1150.5625"/><text fill="#000000" font-family="sans-serif" font-size="14" lengthAdjust="spacing" textLength="30" x="27" y="1172.0957">Main</text><rect fill="#E2E2F0" height="31.6094" rx="2.5" ry="2.5" style="stroke:#181818;stroke-width:0.5;" width="61" x="173.5" y="5"/><text fill="#000000" font-family="sans-serif" font-size="14" lengthAdjust="spacing" textLength="47" x="180.5" y="26.5332">Monitor</text><rect fill="#E2E2F0" height="31.6094" rx="2.5" ry="2.5" style="stroke:#181818;stroke-width:0.5;" width="61" x="173.5" y="1150.5625"/><text fill="#000000" font-family="sans-serif" font-size="14" lengthAdjust="spacing" textLength="47" x="180.5" y="1172.0957">Monitor</text><rect fill="#E2E2F0" height="31.6094" rx="2.5" ry="2.5" style="stroke:#181818;stroke-width:0.5;" width="40" x="401" y="5"/><text fill="#000000" font-family="sans-serif" font-size="14" lengthAdjust="spacing" textLength="26" x="408" y="26.5332">Rdp</text><rect fill="#E2E2F0" height="31.6094" rx="2.5" ry="2.5" style="stroke:#181818;stroke-width:0.5;" width="40" x="401" y="1150.5625"/><text fill="#000000" font-family="sans-serif" font-size="14" lengthAdjust="spacing" textLength="26" x="408" y="1172.0957">Rdp</text><rect fill="#E2E2F0" height="31.6094" rx="2.5" ry="2.5" style="stroke:#181818;stroke-width:0.5;" width="51" x="519.5" y="5"/><text fill="#000000" font-family="sans-serif" font-size="14" lengthAdjust="spacing" textLength="37" x="526.5" y="26.5332">Policy</text><rect fill="#E2E2F0" height="31.6094" rx="2.5" ry="2.5" style="stroke:#181818;stroke-width:0.5;" width="51" x="519.5" y="1150.5625"/><text fill="#000000" font-family="sans-serif" font-size="14" lengthAdjust="spacing" textLength="37" x="526.5" y="1172.0957">Policy</text><rect fill="#E2E2F0" height="31.6094" rx="2.5" ry="2.5" style="stroke:#181818;stroke-width:0.5;" width="67" x="580.5" y="5"/><text fill="#000000" font-family="sans-serif" font-size="14" lengthAdjust="spacing" textLength="53" x="587.5" y="26.5332">Threads</text><rect fill="#E2E2F0" height="31.6094" rx="2.5" ry="2.5" style="stroke:#181818;stroke-width:0.5;" width="67" x="580.5" y="1150.5625"/><text fill="#000000" font-family="sans-serif" font-size="14" lengthAdjust="spacing" textLength="53" x="587.5" y="1172.0957">Threads</text><rect fill="#E2E2F0" height="31.6094" rx="2.5" ry="2.5" style="stroke:#181818;stroke-width:0.5;" width="38" x="657.5" y="5"/><text fill="#000000" font-family="sans-serif" font-size="14" lengthAdjust="spacing" textLength="24" x="664.5" y="26.5332">Log</text><rect fill="#E2E2F0" height="31.6094" rx="2.5" ry="2.5" style="stroke:#181818;stroke-width:0.5;" width="38" x="657.5" y="1150.5625"/><text fill="#000000" font-family="sans-serif" font-size="14" lengthAdjust="spacing" textLength="24" x="664.5" y="1172.0957">Log</text><rect fill="#E2E2F0" height="31.6094" rx="2.5" ry="2.5" style="stroke:#181818;stroke-width:0.5;" width="37" x="786" y="5"/><text fill="#000000" font-family="sans-serif" font-size="14" lengthAdjust="spacing" textLength="23" x="793" y="26.5332">File</text><rect fill="#E2E2F0" height="31.6094" rx="2.5" ry="2.5" style="stroke:#181818;stroke-width:0.5;" width="37" x="786" y="1150.5625"/><text fill="#000000" font-family="sans-serif" font-size="14" lengthAdjust="spacing" textLength="23" x="793" y="1172.0957">File</text><rect fill="#FFFFFF" height="299.1641" style="stroke:#181818;stroke-width:1.0;" width="10" x="199" y="365.4766"/><path d="M10,54.6094 L134,54.6094 L134,62.9609 L124,72.9609 L10,72.9609 L10,54.6094 " fill="#EEEEEE" style="stroke:#000000;stroke-width:1.5;"/><rect fill="none" height="230.8125" style="stroke:#000000;stroke-width:1.5;" width="695.5" x="10" y="54.6094"/><text fill="#000000" font-family="sans-serif" font-size="13" font-weight="bold" lengthAdjust="spacing" textLength="79" x="25" y="69.1045">Initialization</text><polygon fill="#181818" points="409,91.3125,419,95.3125,409,99.3125,413,95.3125" style="stroke:#181818;stroke-width:1.0;"/><line style="stroke:#181818;stroke-width:1.0;" x1="42" x2="415" y1="95.3125" y2="95.3125"/><text fill="#000000" font-family="sans-serif" font-size="13" lengthAdjust="spacing" textLength="145" x="49" y="90.4561">new Rdp(maxFiresForT0)</text><polygon fill="#181818" points="533,121.6641,543,125.6641,533,129.6641,537,125.6641" style="stroke:#181818;stroke-width:1.0;"/><line style="stroke:#181818;stroke-width:1.0;" x1="42" x2="539" y1="125.6641" y2="125.6641"/><text fill="#000000" font-family="sans-serif" font-size="13" lengthAdjust="spacing" textLength="137" x="49" y="120.8076">new Policy(isEquitative)</text><polygon fill="#181818" points="192,152.0156,202,156.0156,192,160.0156,196,156.0156" style="stroke:#181818;stroke-width:1.0;"/><line style="stroke:#181818;stroke-width:1.0;" x1="42" x2="198" y1="156.0156" y2="156.0156"/><text fill="#000000" font-family="sans-serif" font-size="13" lengthAdjust="spacing" textLength="138" x="49" y="151.1592">new Monitor(rdp, policy)</text><polygon fill="#181818" points="602,182.3672,612,186.3672,602,190.3672,606,186.3672" style="stroke:#181818;stroke-width:1.0;"/><line style="stroke:#181818;stroke-width:1.0;" x1="42" x2="608" y1="186.3672" y2="186.3672"/><text fill="#000000" font-family="sans-serif" font-size="13" lengthAdjust="spacing" textLength="285" x="49" y="181.5107">Create threads (creators, loaders, adjusters, etc.)</text><polygon fill="#181818" points="664.5,212.7188,674.5,216.7188,664.5,220.7188,668.5,216.7188" style="stroke:#181818;stroke-width:1.0;"/><line style="stroke:#181818;stroke-width:1.0;" x1="42" x2="670.5" y1="216.7188" y2="216.7188"/><text fill="#000000" font-family="sans-serif" font-size="13" lengthAdjust="spacing" textLength="150" x="49" y="211.8623">new Log(threads, monitor)</text><polygon fill="#181818" points="602,243.0703,612,247.0703,602,251.0703,606,247.0703" style="stroke:#181818;stroke-width:1.0;"/><line style="stroke:#181818;stroke-width:1.0;" x1="42" x2="608" y1="247.0703" y2="247.0703"/><text fill="#000000" font-family="sans-serif" font-size="13" lengthAdjust="spacing" textLength="92" x="49" y="242.2139">Start all threads</text><polygon fill="#181818" points="664.5,273.4219,674.5,277.4219,664.5,281.4219,668.5,277.4219" style="stroke:#181818;stroke-width:1.0;"/><line style="stroke:#181818;stroke-width:1.0;" x1="42" x2="670.5" y1="277.4219" y2="277.4219"/><text fill="#000000" font-family="sans-serif" font-size="13" lengthAdjust="spacing" textLength="107" x="49" y="272.5654">Start logger thread</text><path d="M153.5,299.4219 L447.5,299.4219 L447.5,307.7734 L437.5,317.7734 L153.5,317.7734 L153.5,299.4219 " fill="#EEEEEE" style="stroke:#000000;stroke-width:1.5;"/><rect fill="none" height="380.2188" style="stroke:#000000;stroke-width:1.5;" width="514" x="153.5" y="299.4219"/><text fill="#000000" font-family="sans-serif" font-size="13" font-weight="bold" lengthAdjust="spacing" textLength="249" x="168.5" y="313.917">Thread Workflow (e.g., Creator Thread)</text><path d="M163.5,324.7734 L236.5,324.7734 L236.5,333.125 L226.5,343.125 L163.5,343.125 L163.5,324.7734 " fill="#EEEEEE" style="stroke:#000000;stroke-width:1.5;"/><rect fill="none" height="347.8672" style="stroke:#000000;stroke-width:1.5;" width="494" x="163.5" y="324.7734"/><text fill="#000000" font-family="sans-serif" font-size="13" font-weight="bold" lengthAdjust="spacing" textLength="28" x="178.5" y="339.2686">loop</text><text fill="#000000" font-family="sans-serif" font-size="11" font-weight="bold" lengthAdjust="spacing" textLength="178" x="251.5" y="338.1924">[while invariants not completed]</text><polygon fill="#181818" points="220,361.4766,210,365.4766,220,369.4766,216,365.4766" style="stroke:#181818;stroke-width:1.0;"/><line style="stroke:#181818;stroke-width:1.0;" x1="214" x2="613" y1="365.4766" y2="365.4766"/><text fill="#000000" font-family="sans-serif" font-size="13" lengthAdjust="spacing" textLength="141" x="226" y="360.6201">fireTransition(transitions)</text><polygon fill="#181818" points="409,391.8281,419,395.8281,409,399.8281,413,395.8281" style="stroke:#181818;stroke-width:1.0;"/><line style="stroke:#181818;stroke-width:1.0;" x1="209" x2="415" y1="395.8281" y2="395.8281"/><text fill="#000000" font-family="sans-serif" font-size="13" lengthAdjust="spacing" textLength="88" x="216" y="390.9717">whichEnabled()</text><polygon fill="#181818" points="220,422.1797,210,426.1797,220,430.1797,216,426.1797" style="stroke:#181818;stroke-width:1.0;"/><line style="stroke:#181818;stroke-width:1.0;stroke-dasharray:2.0,2.0;" x1="214" x2="420" y1="426.1797" y2="426.1797"/><text fill="#000000" font-family="sans-serif" font-size="13" lengthAdjust="spacing" textLength="188" x="226" y="421.3232">List&lt;Integer&gt; enabledTransitions</text><polygon fill="#181818" points="533,452.5313,543,456.5313,533,460.5313,537,456.5313" style="stroke:#181818;stroke-width:1.0;"/><line style="stroke:#181818;stroke-width:1.0;" x1="209" x2="539" y1="456.5313" y2="456.5313"/><text fill="#000000" font-family="sans-serif" font-size="13" lengthAdjust="spacing" textLength="154" x="216" y="451.6748">decide(enabledTransitions)</text><polygon fill="#181818" points="220,482.8828,210,486.8828,220,490.8828,216,486.8828" style="stroke:#181818;stroke-width:1.0;"/><line style="stroke:#181818;stroke-width:1.0;stroke-dasharray:2.0,2.0;" x1="214" x2="544" y1="486.8828" y2="486.8828"/><text fill="#000000" font-family="sans-serif" font-size="13" lengthAdjust="spacing" textLength="105" x="226" y="482.0264">selectedTransition</text><polygon fill="#181818" points="409,513.2344,419,517.2344,409,521.2344,413,517.2344" style="stroke:#181818;stroke-width:1.0;"/><line style="stroke:#181818;stroke-width:1.0;" x1="209" x2="415" y1="517.2344" y2="517.2344"/><text fill="#000000" font-family="sans-serif" font-size="13" lengthAdjust="spacing" textLength="130" x="216" y="512.3779">fire(selectedTransition)</text><line style="stroke:#181818;stroke-width:1.0;" x1="421" x2="463" y1="547.5859" y2="547.5859"/><line style="stroke:#181818;stroke-width:1.0;" x1="463" x2="463" y1="547.5859" y2="560.5859"/><line style="stroke:#181818;stroke-width:1.0;" x1="422" x2="463" y1="560.5859" y2="560.5859"/><polygon fill="#181818" points="432,556.5859,422,560.5859,432,564.5859,428,560.5859" style="stroke:#181818;stroke-width:1.0;"/><text fill="#000000" font-family="sans-serif" font-size="13" lengthAdjust="spacing" textLength="93" x="428" y="542.7295">updateMarking()</text><line style="stroke:#181818;stroke-width:1.0;" x1="421" x2="463" y1="590.9375" y2="590.9375"/><line style="stroke:#181818;stroke-width:1.0;" x1="463" x2="463" y1="590.9375" y2="603.9375"/><line style="stroke:#181818;stroke-width:1.0;" x1="422" x2="463" y1="603.9375" y2="603.9375"/><polygon fill="#181818" points="432,599.9375,422,603.9375,432,607.9375,428,603.9375" style="stroke:#181818;stroke-width:1.0;"/><text fill="#000000" font-family="sans-serif" font-size="13" lengthAdjust="spacing" textLength="110" x="428" y="586.0811">testPlaceInvariant()</text><polygon fill="#181818" points="220,630.2891,210,634.2891,220,638.2891,216,634.2891" style="stroke:#181818;stroke-width:1.0;"/><line style="stroke:#181818;stroke-width:1.0;stroke-dasharray:2.0,2.0;" x1="214" x2="420" y1="634.2891" y2="634.2891"/><text fill="#000000" font-family="sans-serif" font-size="13" lengthAdjust="spacing" textLength="49" x="226" y="629.4326">success</text><polygon fill="#181818" points="602,660.6406,612,664.6406,602,668.6406,606,664.6406" style="stroke:#181818;stroke-width:1.0;"/><line style="stroke:#181818;stroke-width:1.0;stroke-dasharray:2.0,2.0;" x1="204" x2="608" y1="664.6406" y2="664.6406"/><text fill="#000000" font-family="sans-serif" font-size="13" lengthAdjust="spacing" textLength="53" x="211" y="659.7842">true/false</text><path d="M153.5,693.6406 L250.5,693.6406 L250.5,701.9922 L240.5,711.9922 L153.5,711.9922 L153.5,693.6406 " fill="#EEEEEE" style="stroke:#000000;stroke-width:1.5;"/><rect fill="none" height="440.9219" style="stroke:#000000;stroke-width:1.5;" width="689.5" x="153.5" y="693.6406"/><text fill="#000000" font-family="sans-serif" font-size="13" font-weight="bold" lengthAdjust="spacing" textLength="52" x="168.5" y="708.1357">Logging</text><path d="M163.5,718.9922 L236.5,718.9922 L236.5,727.3438 L226.5,737.3438 L163.5,737.3438 L163.5,718.9922 " fill="#EEEEEE" style="stroke:#000000;stroke-width:1.5;"/><rect fill="none" height="213.4609" style="stroke:#000000;stroke-width:1.5;" width="669.5" x="163.5" y="718.9922"/><text fill="#000000" font-family="sans-serif" font-size="13" font-weight="bold" lengthAdjust="spacing" textLength="28" x="178.5" y="733.4873">loop</text><text fill="#000000" font-family="sans-serif" font-size="11" font-weight="bold" lengthAdjust="spacing" textLength="224" x="251.5" y="732.4111">[every 500ms until invariants completed]</text><polygon fill="#181818" points="215,755.6953,205,759.6953,215,763.6953,211,759.6953" style="stroke:#181818;stroke-width:1.0;"/><line style="stroke:#181818;stroke-width:1.0;" x1="209" x2="675.5" y1="759.6953" y2="759.6953"/><text fill="#000000" font-family="sans-serif" font-size="13" lengthAdjust="spacing" textLength="142" x="221" y="754.8389">areInvariantsCompleted()</text><polygon fill="#181818" points="664.5,786.0469,674.5,790.0469,664.5,794.0469,668.5,790.0469" style="stroke:#181818;stroke-width:1.0;"/><line style="stroke:#181818;stroke-width:1.0;stroke-dasharray:2.0,2.0;" x1="204" x2="670.5" y1="790.0469" y2="790.0469"/><text fill="#000000" font-family="sans-serif" font-size="13" lengthAdjust="spacing" textLength="27" x="211" y="785.1904">false</text><line style="stroke:#181818;stroke-width:1.0;" x1="676.5" x2="718.5" y1="820.3984" y2="820.3984"/><line style="stroke:#181818;stroke-width:1.0;" x1="718.5" x2="718.5" y1="820.3984" y2="833.3984"/><line style="stroke:#181818;stroke-width:1.0;" x1="677.5" x2="718.5" y1="833.3984" y2="833.3984"/><polygon fill="#181818" points="687.5,829.3984,677.5,833.3984,687.5,837.3984,683.5,833.3984" style="stroke:#181818;stroke-width:1.0;"/><text fill="#000000" font-family="sans-serif" font-size="13" lengthAdjust="spacing" textLength="56" x="683.5" y="815.542">writeFile()</text><polygon fill="#181818" points="432,859.75,422,863.75,432,867.75,428,863.75" style="stroke:#181818;stroke-width:1.0;"/><line style="stroke:#181818;stroke-width:1.0;" x1="426" x2="675.5" y1="863.75" y2="863.75"/><text fill="#000000" font-family="sans-serif" font-size="13" lengthAdjust="spacing" textLength="100" x="438" y="858.8936">getFiredCounter()</text><polygon fill="#181818" points="664.5,890.1016,674.5,894.1016,664.5,898.1016,668.5,894.1016" style="stroke:#181818;stroke-width:1.0;"/><line style="stroke:#181818;stroke-width:1.0;stroke-dasharray:2.0,2.0;" x1="421" x2="670.5" y1="894.1016" y2="894.1016"/><text fill="#000000" font-family="sans-serif" font-size="13" lengthAdjust="spacing" textLength="66" x="428" y="889.2451">firedCount[]</text><polygon fill="#181818" points="792.5,920.4531,802.5,924.4531,792.5,928.4531,796.5,924.4531" style="stroke:#181818;stroke-width:1.0;"/><line style="stroke:#181818;stroke-width:1.0;" x1="676.5" x2="798.5" y1="924.4531" y2="924.4531"/><text fill="#000000" font-family="sans-serif" font-size="13" lengthAdjust="spacing" textLength="59" x="683.5" y="919.5967">Write logs</text><polygon fill="#181818" points="215,957.8047,205,961.8047,215,965.8047,211,961.8047" style="stroke:#181818;stroke-width:1.0;"/><line style="stroke:#181818;stroke-width:1.0;" x1="209" x2="675.5" y1="961.8047" y2="961.8047"/><text fill="#000000" font-family="sans-serif" font-size="13" lengthAdjust="spacing" textLength="142" x="221" y="956.9482">areInvariantsCompleted()</text><polygon fill="#181818" points="664.5,988.1563,674.5,992.1563,664.5,996.1563,668.5,992.1563" style="stroke:#181818;stroke-width:1.0;"/><line style="stroke:#181818;stroke-width:1.0;stroke-dasharray:2.0,2.0;" x1="204" x2="670.5" y1="992.1563" y2="992.1563"/><text fill="#000000" font-family="sans-serif" font-size="13" lengthAdjust="spacing" textLength="22" x="211" y="987.2998">true</text><line style="stroke:#181818;stroke-width:1.0;" x1="676.5" x2="718.5" y1="1022.5078" y2="1022.5078"/><line style="stroke:#181818;stroke-width:1.0;" x1="718.5" x2="718.5" y1="1022.5078" y2="1035.5078"/><line style="stroke:#181818;stroke-width:1.0;" x1="677.5" x2="718.5" y1="1035.5078" y2="1035.5078"/><polygon fill="#181818" points="687.5,1031.5078,677.5,1035.5078,687.5,1039.5078,683.5,1035.5078" style="stroke:#181818;stroke-width:1.0;"/><text fill="#000000" font-family="sans-serif" font-size="13" lengthAdjust="spacing" textLength="114" x="683.5" y="1017.6514">logWriteSequence()</text><polygon fill="#181818" points="432,1061.8594,422,1065.8594,432,1069.8594,428,1065.8594" style="stroke:#181818;stroke-width:1.0;"/><line style="stroke:#181818;stroke-width:1.0;" x1="426" x2="675.5" y1="1065.8594" y2="1065.8594"/><text fill="#000000" font-family="sans-serif" font-size="13" lengthAdjust="spacing" textLength="84" x="438" y="1061.0029">getSequence()</text><polygon fill="#181818" points="664.5,1092.2109,674.5,1096.2109,664.5,1100.2109,668.5,1096.2109" style="stroke:#181818;stroke-width:1.0;"/><line style="stroke:#181818;stroke-width:1.0;stroke-dasharray:2.0,2.0;" x1="421" x2="670.5" y1="1096.2109" y2="1096.2109"/><text fill="#000000" font-family="sans-serif" font-size="13" lengthAdjust="spacing" textLength="56" x="428" y="1091.3545">sequence</text><polygon fill="#181818" points="792.5,1122.5625,802.5,1126.5625,792.5,1130.5625,796.5,1126.5625" style="stroke:#181818;stroke-width:1.0;"/><line style="stroke:#181818;stroke-width:1.0;" x1="676.5" x2="798.5" y1="1126.5625" y2="1126.5625"/><text fill="#000000" font-family="sans-serif" font-size="13" lengthAdjust="spacing" textLength="91" x="683.5" y="1121.7061">Write sequence</text><!--SRC=[bLHDRnen4BtlhvYZaGZbaWkgSa51Gagag47AeUh1jOV5ZR4tzYma_VMrrrwm0pcK2xRdpNjlFg3ZZfHG7JS4ZroPfYiVh55aNVNsGtRL_Sbg9JwgfytE8PU-UdkmRTEqplOTh0EfubhzvQIiQM3GXPkxIBq0WyTuO7l-lb8E_SgwpNnIe99W0gOpK_x-hLSK-0vOGhF_XCqNvcGtXMv8BB7Pz0AMuPiGADs1YNYtpaz1Moun7hZyqtiQZaXYLjA4EfDSEB3CCOLzqhwgzqoXJS2r7YK_ioM0jcsBBcCQD79iPoA25-jUjzeUWU6idKrJ6TRbS5JMrdPmt2cDeCo1EnNcui5O0c7tdKP26L0mEgiQk0sZs3Xkl8epOtGw-icGmqNeVMpRk38mVFBjDDoWBdRtXl_MADaaWq84Ragn1-Nf-zeGXeBl01FyhEuloSUTa2YKH7QPCcebO2tdKQEW4lw5-zW4TeckwiZGlfEX6u_SlIhJici8GazFcWjSZxFukY6-5mBzHTtb5f7hyTkMQuy3IkALYSIbAHOdB5SRt8sRWGTq7t0xd-yzz8QKBhUatf2GMMq7T-Sg_7A4vdfAkyC-drrcdk7rw1JXAYndJikneLSjKlmla4iRZA7BYB5DYVGK__chp8-C2tY9vF4dv7CRclygugA4sEsczX_81vLdVElHY5J6foAgM6NVvqXprVWf6gt_0m00]--></g></svg>